<svg xmlns="http://www.w3.org/2000/svg" width="900" height="520">
<rect width="100%" height="100%" fill="white"/>
<text x="450.0" y="35" text-anchor="middle" font-size="22">Comparison of node count</text>
<line x1="80" y1="70" x2="80" y2="450" stroke="black"/>
<line x1="80" y1="450" x2="860" y2="450" stroke="black"/>
<line x1="80.0" y1="450" x2="80.0" y2="456" stroke="black"/>
<text x="80.0" y="475" text-anchor="middle" font-size="12">0</text>
<line x1="158.0" y1="450" x2="158.0" y2="456" stroke="black"/>
<text x="158.0" y="475" text-anchor="middle" font-size="12">100</text>
<line x1="236.0" y1="450" x2="236.0" y2="456" stroke="black"/>
<text x="236.0" y="475" text-anchor="middle" font-size="12">200</text>
<line x1="314.0" y1="450" x2="314.0" y2="456" stroke="black"/>
<text x="314.0" y="475" text-anchor="middle" font-size="12">300</text>
<line x1="392.0" y1="450" x2="392.0" y2="456" stroke="black"/>
<text x="392.0" y="475" text-anchor="middle" font-size="12">400</text>
<line x1="470.0" y1="450" x2="470.0" y2="456" stroke="black"/>
<text x="470.0" y="475" text-anchor="middle" font-size="12">500</text>
<line x1="548.0" y1="450" x2="548.0" y2="456" stroke="black"/>
<text x="548.0" y="475" text-anchor="middle" font-size="12">600</text>
<line x1="626.0" y1="450" x2="626.0" y2="456" stroke="black"/>
<text x="626.0" y="475" text-anchor="middle" font-size="12">700</text>
<line x1="704.0" y1="450" x2="704.0" y2="456" stroke="black"/>
<text x="704.0" y="475" text-anchor="middle" font-size="12">800</text>
<line x1="782.0" y1="450" x2="782.0" y2="456" stroke="black"/>
<text x="782.0" y="475" text-anchor="middle" font-size="12">900</text>
<line x1="860.0" y1="450" x2="860.0" y2="456" stroke="black"/>
<text x="860.0" y="475" text-anchor="middle" font-size="12">1000</text>
<line x1="74" y1="450.0" x2="80" y2="450.0" stroke="black"/>
<text x="68" y="454.0" text-anchor="end" font-size="12">0</text>
<line x1="80" y1="450.0" x2="860" y2="450.0" stroke="#dddddd"/>
<line x1="74" y1="373.5" x2="80" y2="373.5" stroke="black"/>
<text x="68" y="377.5" text-anchor="end" font-size="12">30</text>
<line x1="80" y1="373.5" x2="860" y2="373.5" stroke="#dddddd"/>
<line x1="74" y1="297.0" x2="80" y2="297.0" stroke="black"/>
<text x="68" y="301.0" text-anchor="end" font-size="12">60</text>
<line x1="80" y1="297.0" x2="860" y2="297.0" stroke="#dddddd"/>
<line x1="74" y1="220.5" x2="80" y2="220.5" stroke="black"/>
<text x="68" y="224.5" text-anchor="end" font-size="12">90</text>
<line x1="80" y1="220.5" x2="860" y2="220.5" stroke="#dddddd"/>
<line x1="74" y1="144.0" x2="80" y2="144.0" stroke="black"/>
<text x="68" y="148.0" text-anchor="end" font-size="12">120</text>
<line x1="80" y1="144.0" x2="860" y2="144.0" stroke="#dddddd"/>
<text x="450.0" y="500" text-anchor="middle" font-size="14">time</text>
<text x="20" y="260.0" text-anchor="middle" font-size="14" transform="rotate(-90 20 260.0)">received nodes except T0</text>
<polyline points="80.0,450.0 158.0,450.0 236.0,421.9 314.0,409.2 392.0,404.1 470.0,401.5 548.0,401.5 626.0,401.5 704.0,401.5 782.0,401.5 860.0,401.5" fill="none" stroke="#1f77b4" stroke-width="3"/>
<line x1="95" y1="90" x2="125" y2="90" stroke="#1f77b4" stroke-width="3"/>
<text x="135" y="95" font-size="14">20 nodes</text>
<polyline points="80.0,450.0 158.0,378.6 236.0,337.8 314.0,327.6 392.0,325.0 470.0,325.0 548.0,325.0 626.0,325.0 704.0,325.0 782.0,325.0 860.0,325.0" fill="none" stroke="#d62728" stroke-width="3"/>
<line x1="95" y1="114" x2="125" y2="114" stroke="#d62728" stroke-width="3"/>
<text x="135" y="119" font-size="14">50 nodes</text>
<polyline points="80.0,450.0 158.0,450.0 236.0,243.4 314.0,210.3 392.0,200.1 470.0,200.1 548.0,197.5 626.0,197.5 704.0,197.5 782.0,197.5 860.0,197.5" fill="none" stroke="#2ca02c" stroke-width="3"/>
<line x1="95" y1="138" x2="125" y2="138" stroke="#2ca02c" stroke-width="3"/>
<text x="135" y="143" font-size="14">100 nodes</text>
<polyline points="80.0,450.0 158.0,274.0 236.0,100.6 314.0,77.7 392.0,72.6 470.0,70.0 548.0,70.0 626.0,70.0 704.0,70.0 782.0,70.0 860.0,70.0" fill="none" stroke="#9467bd" stroke-width="3"/>
<line x1="95" y1="162" x2="125" y2="162" stroke="#9467bd" stroke-width="3"/>
<text x="135" y="167" font-size="14">150 nodes</text>
</svg>